<svg width="25" height="25" viewBox="0 0 50 50" fill="none" xmlns="http://www.w3.org/2000/svg">
<path d="M24.8983 31.6261L2.53161 49.8442C2.43457 49.9232 2.32092 49.9687 2.19068 49.9806C0.752941 50.1218 0.0315081 49.4911 0.0264006 48.0884C-0.0195662 35.268 -0.00550298 19.8302 0.0685547 1.77489C0.0685547 0.909587 0.623977 0.0047899 1.5663 0.0047899C17.2001 2.59787e-06 32.8339 -0.00119773 48.4678 0.00119592C49.5365 0.00478639 50 0.974214 50 1.91851C50 17.269 50 32.6195 50 47.9699C50 50.5551 48.0732 50.2966 46.4759 48.9968C39.374 43.2162 32.2798 37.4259 25.1932 31.6261C25.0962 31.5471 24.9979 31.5471 24.8983 31.6261ZM23.6036 28.4916C24.3773 27.8525 25.4231 27.7233 26.1279 28.2977C32.9412 33.8414 39.7583 39.3947 46.5793 44.9576C46.5936 44.9691 46.6111 44.9767 46.6297 44.9793C46.6484 44.9819 46.6674 44.9795 46.6847 44.9723C46.702 44.9652 46.7167 44.9536 46.7272 44.9389C46.7377 44.9242 46.7435 44.907 46.744 44.8893V3.32239C46.744 3.14286 46.6483 3.0531 46.4567 3.0531H3.55436C3.42668 3.0531 3.36283 3.11294 3.36283 3.23262V44.7888C3.36283 44.954 3.42924 44.9827 3.56203 44.875C10.3013 39.4318 16.9818 33.9707 23.6036 28.4916Z" fill="white"/>
</svg>
