<svg width="25" height="25" viewBox="0 0 50 50" fill="none" xmlns="http://www.w3.org/2000/svg">
<path d="M24.7725 6.27939C24.7984 6.31174 24.8296 6.3374 24.8641 6.3548C24.8986 6.37221 24.9357 6.381 24.9731 6.38064C25.0105 6.38027 25.0474 6.37075 25.0817 6.35267C25.1159 6.33458 25.1468 6.30831 25.1723 6.27546C36.3269 -8.1106 55.3233 4.58876 48.5925 23.453C45.0206 33.4592 35.6847 42.3527 28.3411 48.6355C25.1198 51.3916 22.2623 49.5319 19.5064 46.9488C12.2054 40.1116 0.90329 29.4056 0.0578412 17.3903C-0.309175 12.1979 1.07041 7.83372 4.19661 4.29782C10.3507 -2.65735 19.3459 -0.573552 24.7725 6.27939ZM20.4043 43.3906C21.4289 44.3762 22.4961 45.2909 23.6059 46.1349C25.1133 47.2751 26.3683 46.249 27.7184 45.038C34.8785 38.59 50.1884 24.5971 46.6067 11.9843C43.5231 1.11707 32.7321 1.34119 27.0434 8.77601C26.4928 9.49551 25.1559 11.6147 24.2089 10.4273C21.3415 6.83376 18.4742 3.82601 14.2371 3.42891C8.49922 2.88634 3.39377 7.79309 2.85963 14.5635C1.94537 26.1659 13.7718 36.9977 20.4043 43.3906Z" fill="white"/>
</svg>
