<svg width="25" height="25" viewBox="0 0 50 50" fill="none" xmlns="http://www.w3.org/2000/svg">
<path d="M49.9526 38.6132C49.9473 41.6385 48.7405 44.5377 46.5976 46.6731C44.4547 48.8086 41.5513 50.0053 38.526 50L11.3868 49.9526C8.36152 49.9474 5.46228 48.7405 3.32685 46.5976C1.19142 44.4547 -0.00526709 41.5513 1.74281e-05 38.526L0.0473509 11.3868C0.0526357 8.36153 1.25948 5.4623 3.40238 3.32687C5.54528 1.19144 8.44872 -0.00526709 11.474 1.74277e-05L38.6132 0.0473673C41.6385 0.0526521 44.5377 1.25949 46.6731 3.40239C48.8086 5.5453 50.0053 8.44873 50 11.474L49.9526 38.6132ZM46.9003 11.5428C46.8964 9.28811 45.997 7.12736 44.3999 5.53586C42.8028 3.94436 40.639 3.05247 38.3843 3.0564L11.5392 3.10325C9.2845 3.10718 7.12375 4.00662 5.53225 5.60368C3.94075 7.20074 3.04887 9.36462 3.05281 11.6193L3.09966 38.4572C3.10359 40.7119 4.00301 42.8726 5.60008 44.4641C7.19714 46.0556 9.36102 46.9475 11.6157 46.9436L38.4608 46.8968C40.7155 46.8928 42.8762 45.9934 44.4677 44.3963C46.0592 42.7993 46.9511 40.6354 46.9472 38.3807L46.9003 11.5428Z" fill="white"/>
<path d="M26.6894 23.4216C29.9488 23.4335 33.2058 23.4383 36.4604 23.4359C37.2567 23.4335 37.8079 23.516 38.114 23.6834C39.2762 24.3147 39.1184 26.4705 37.4899 26.4741C33.8813 26.4813 30.262 26.4813 26.632 26.4741C26.5939 26.4741 26.5574 26.4896 26.5305 26.5172C26.5036 26.5448 26.4885 26.5822 26.4885 26.6212C26.4837 30.2704 26.4825 33.9291 26.4849 37.5974C26.4885 39.1398 23.5185 39.6528 23.5256 37.1239C23.5328 33.6613 23.5316 30.1986 23.522 26.736C23.522 26.6092 23.4587 26.5447 23.3319 26.5423C19.8525 26.4538 16.3815 26.437 12.9188 26.492C10.4689 26.5315 10.433 23.5686 12.7897 23.5256C16.2835 23.461 19.7784 23.4228 23.2745 23.4108C23.4013 23.4108 23.4635 23.3486 23.4611 23.2243C23.3965 17.4157 23.4096 13.7486 23.5005 12.2229C23.583 10.7989 26.5028 10.4366 26.4885 13.1484C26.4718 16.5082 26.4742 19.868 26.4957 23.2279C26.4957 23.357 26.5602 23.4216 26.6894 23.4216Z" fill="white"/>
</svg>
