<svg width="25" height="25" viewBox="0 0 50 50" fill="none" xmlns="http://www.w3.org/2000/svg">
<path d="M46.104 37.3316C47.3763 40.4929 48.6264 43.6621 49.8542 46.8392C50.4324 48.3359 49.1957 49.2782 47.8153 48.8428C44.7157 47.8585 41.6306 46.8573 38.56 45.8391C38.4889 45.8156 38.4138 45.8083 38.3398 45.8177C38.2658 45.8271 38.1949 45.853 38.1322 45.8935C31.5185 50.0367 24.652 51.0447 17.5326 48.9176C7.08402 45.7983 -0.112317 35.8553 0.00132698 24.8238C0.188505 6.72715 18.6957 -5.36565 34.9134 2.38667C47.8387 8.56743 52.8524 24.1061 46.1173 37.0187C46.0638 37.1207 46.0594 37.225 46.104 37.3316ZM38.3327 42.713C39.536 43.0781 42.0551 43.8968 45.89 45.169C46.017 45.2121 46.056 45.1701 46.007 45.0431C45.0644 42.5463 44.104 40.0563 43.1258 37.5731C43.0612 37.4053 43.0289 37.1434 43.0289 36.7874C43.0289 36.6763 43.0567 36.5731 43.1124 36.4778C45.7218 31.94 46.7 27.1539 46.0471 22.1195C44.1854 7.77485 29.3315 -0.984356 16.1722 4.71678C2.58171 10.605 -1.51615 28.1949 8.25722 39.5563C14.882 47.2576 25.9556 49.2918 34.7897 44.39C35.4816 44.009 37.6709 42.5123 38.3327 42.713Z" fill="white"/>
</svg>
