<svg width="30" height="30" viewBox="0 0 55 55" fill="none" xmlns="http://www.w3.org/2000/svg">
<circle cx="27.5" cy="27.5" r="27.5" fill="black"/>
<circle cx="27.5" cy="27.5" r="22.5" fill="#4192EF"/>
<path d="M28.6381 26.2941C31.8975 26.3061 35.1545 26.3109 38.4091 26.3085C39.2054 26.3061 39.7566 26.3886 40.0627 26.556C41.2249 27.1873 41.0671 29.3431 39.4386 29.3467C35.8301 29.3538 32.2108 29.3538 28.5807 29.3467C28.5426 29.3467 28.5062 29.3622 28.4792 29.3897C28.4523 29.4173 28.4372 29.4547 28.4372 29.4937C28.4324 33.1429 28.4312 36.8017 28.4336 40.47C28.4372 42.0124 25.4672 42.5253 25.4744 39.9965C25.4815 36.5338 25.4803 33.0712 25.4708 29.6085C25.4708 29.4818 25.4074 29.4172 25.2807 29.4148C21.8013 29.3263 18.3302 29.3096 14.8676 29.3646C12.4176 29.4041 12.3818 26.4412 14.7384 26.3981C18.2322 26.3336 21.7271 26.2953 25.2233 26.2834C25.35 26.2834 25.4122 26.2212 25.4098 26.0968C25.3452 20.2883 25.3584 16.6212 25.4492 15.0955C25.5317 13.6714 28.4516 13.3091 28.4372 16.0209C28.4205 19.3808 28.4229 22.7406 28.4444 26.1004C28.4444 26.2296 28.509 26.2941 28.6381 26.2941Z" fill="white"/>
</svg>
