<svg width="25" height="25" viewBox="0 0 50 50" fill="none" xmlns="http://www.w3.org/2000/svg">
<path d="M31.3311 49.9137C30.6547 49.6285 30.3153 49.1169 30.3129 48.3788C30.2866 43.7319 30.2771 39.0851 30.2843 34.4382C30.2866 32.66 30.1265 31.3707 29.8039 30.5703C27.9863 26.0552 21.4938 26.4039 20.0204 31.0304C19.8053 31.7062 19.6989 32.8565 19.7013 34.4814C19.7085 39.2049 19.7085 43.9284 19.7013 48.652C19.7013 49.7484 18.5541 49.9856 17.5897 49.9892C12.1788 50.0036 6.76779 50.0024 1.35682 49.9856C0.464151 49.982 0.0769679 49.0941 0.0769679 48.2529C0.0793579 41.6649 0.0781648 35.0769 0.0733848 28.4889C0.0733848 26.4902 -0.10945 22.9925 0.102066 20.2101C0.134331 19.7967 0.299241 19.5846 0.600382 19.3366C8.2962 13.0625 15.9992 6.79563 23.7093 0.535934C24.5459 -0.144676 25.3465 -0.17703 26.1113 0.438874C33.8262 6.66023 41.5268 12.8972 49.2131 19.1497C49.8154 19.6386 49.9946 20.0196 49.9946 20.8428C50.0018 29.9615 50.0018 39.0803 49.9946 48.199C49.9946 49.3709 49.3983 49.9593 48.2057 49.964C42.6657 49.9856 37.1854 49.9976 31.7649 50C31.6158 50 31.4684 49.9707 31.3311 49.9137ZM33.5896 46.9265L46.8577 46.8402C46.8828 46.8393 46.9065 46.8286 46.9239 46.8105C46.9413 46.7924 46.951 46.7683 46.951 46.7431V21.6049C46.951 21.406 46.8733 21.2442 46.7179 21.1196L25.1505 3.59868C25.1076 3.56427 25.0542 3.54556 24.9989 3.54556C24.9436 3.54556 24.8897 3.56427 24.8458 3.59868L3.2963 21.1196C3.24261 21.1635 3.19931 21.2192 3.16955 21.2826C3.13979 21.346 3.12431 21.4156 3.12423 21.4863V46.6712C3.12423 46.7911 3.18398 46.8522 3.30348 46.8546L16.2884 46.9696C16.3367 46.9701 16.3846 46.9609 16.4294 46.9427C16.4742 46.9245 16.5149 46.8976 16.5493 46.8635C16.5836 46.8294 16.6109 46.7888 16.6295 46.7441C16.6481 46.6994 16.6576 46.6514 16.6576 46.6029C16.6552 42.6032 16.6564 38.5518 16.6612 34.449C16.6612 30.7464 17.1309 28.0287 19.9953 25.9402C25.3871 22.0111 32.6898 25.3506 33.2921 32.0225C33.7223 36.8036 33.414 41.9261 33.4211 46.7575C33.4211 46.8725 33.4773 46.9289 33.5896 46.9265Z" fill="white"/>
</svg>
