<svg width="25" height="25" viewBox="0 0 50 50" fill="none" xmlns="http://www.w3.org/2000/svg">
<path d="M0.659615 2.81434C-0.731143 1.60614 0.300902 0.010755 1.69166 0.010755C17.2458 0.0203153 32.799 0.0167306 48.3511 0C49.6949 0 50.5181 1.02177 49.6302 2.52394C40.4231 18.1265 31.219 33.7314 22.0179 49.3387C21.127 50.8516 19.7686 49.4964 19.7744 47.9978C19.8234 38.545 19.8568 29.091 19.8744 19.6358C19.8744 19.5139 19.8333 19.4171 19.7509 19.3454C13.3666 13.853 7.0028 8.34262 0.659615 2.81434ZM5.55815 3.06171C5.53814 3.06145 5.5186 3.06896 5.50234 3.08317C5.48607 3.09737 5.47396 3.11753 5.46774 3.14072C5.46151 3.1639 5.46148 3.1889 5.4677 3.21208C5.47392 3.23527 5.48604 3.25543 5.5023 3.26964L21.224 16.8C21.2381 16.8118 21.2546 16.8187 21.2717 16.82C21.2888 16.8213 21.3059 16.8168 21.321 16.8071L43.0175 3.27682C43.0356 3.26458 43.0499 3.24538 43.0582 3.22219C43.0665 3.19901 43.0682 3.17313 43.0632 3.14859C43.0582 3.12406 43.0466 3.10225 43.0304 3.08654C43.0141 3.07082 42.9941 3.06209 42.9733 3.06171H5.55815ZM22.4472 19.9119L22.3384 43.0252C22.3384 43.3407 22.4138 43.3706 22.5648 43.1149L44.3876 6.09832C44.47 5.96209 44.4484 5.93221 44.3229 6.00869L22.6089 19.5856C22.5011 19.6525 22.4472 19.7613 22.4472 19.9119Z" fill="white"/>
</svg>
