<svg width="25" height="25" viewBox="0 0 40 40" fill="none" xmlns="http://www.w3.org/2000/svg">
<path d="M19.7767 0H20.2408C31.0594 0.161575 39.7727 8.52166 40 18.9494V19.6486C39.9331 22.6761 39.1924 25.5062 37.7781 28.139C34.7896 33.7029 29.1288 37.6011 22.6613 38.4288C19.4778 38.8363 16.3746 38.5102 13.3516 37.4504C13.3347 37.4444 13.3184 37.4455 13.3027 37.4536C11.7571 38.2484 10.2083 39.0448 8.65626 39.8428C8.47829 39.9344 8.3068 39.9868 8.14177 40H8.00113C7.31871 39.9174 6.9038 39.4792 6.90155 38.8217C6.8963 37.1511 6.89676 35.4799 6.90295 33.808C6.90295 33.7989 6.90095 33.7899 6.89707 33.7816C6.89318 33.7733 6.88752 33.7659 6.88045 33.7599C2.59606 30.1447 0.113643 25.065 0 19.5571V19.0751C0.0723863 15.232 1.20338 11.7273 3.39297 8.56076C5.32236 5.77026 8.06554 3.45255 11.189 1.97828C13.8893 0.70396 16.7518 0.044535 19.7767 0ZM7.73193 31.4699C7.98847 31.7093 8.35359 32.0244 8.82729 32.4155C9.00113 32.5589 9.11767 32.7362 9.17693 32.9475C9.20544 33.0492 9.2196 33.2215 9.21941 33.4645C9.21903 34.4111 9.21922 35.3578 9.21997 36.3044C9.22025 36.4646 9.23347 36.7587 9.22166 36.986C9.22154 36.9875 9.22186 36.989 9.22257 36.9904C9.22329 36.9917 9.22438 36.9929 9.22573 36.9937C9.22708 36.9945 9.22864 36.9949 9.23025 36.9949C9.23186 36.995 9.23346 36.9946 9.23488 36.9939C10.3235 36.4334 11.4103 35.8733 12.4954 35.3135C12.8051 35.1536 13.034 35.0574 13.362 35.0911C13.456 35.1009 13.6152 35.1458 13.8397 35.2258C16.0596 36.0171 18.4017 36.4304 20.7719 36.3226C23.8104 36.1843 26.6219 35.3536 29.2065 33.8306C34.2217 30.8755 37.4588 25.5777 37.6464 19.8963C37.7503 16.7517 37.0234 13.8086 35.4658 11.0672C31.9125 4.81331 24.5761 1.36701 17.2956 2.46382C9.76793 3.59783 3.76512 9.32301 2.54937 16.5966C1.627 22.113 3.58115 27.6008 7.73193 31.4699Z" fill="white"/>
<path d="M17.2719 21.4655C16.8061 21.1834 16.2258 21.1986 15.7611 21.4899C13.5705 22.8624 11.3898 24.231 9.21873 25.5958C9.19435 25.6112 9.18901 25.6065 9.2027 25.5817C11.0754 22.1609 12.9428 18.751 14.8049 15.352C14.9454 15.0955 15.038 14.9381 15.0826 14.88C15.5073 14.3269 16.3132 14.2144 16.9177 14.5778C16.9787 14.6144 17.0906 14.6984 17.2533 14.8301C18.7136 16.0095 20.1748 17.1879 21.637 18.3652C22.035 18.6856 22.5602 18.7967 23.0438 18.6123C23.152 18.571 23.3091 18.4795 23.5152 18.3377C25.9437 16.67 28.3658 15.0067 30.7813 13.3476C30.8074 13.3297 30.8126 13.3342 30.7971 13.3612C28.576 17.2168 26.355 21.0701 24.1341 24.9213C23.7253 25.6303 22.7608 25.8517 22.1017 25.3232C20.6384 24.1501 19.1751 22.9769 17.7118 21.8036C17.4682 21.6084 17.3216 21.4957 17.2719 21.4655Z" fill="white"/>
</svg>
