<svg width="25" height="25" viewBox="0 0 50 50" fill="none" xmlns="http://www.w3.org/2000/svg">
<path d="M49.9687 34.0081C49.9651 36.1119 49.5477 38.1943 48.7404 40.1365C47.9331 42.0787 46.7517 43.8427 45.2636 45.3276C43.7756 46.8126 42.0101 47.9895 40.0678 48.7912C38.1256 49.5929 36.0447 50.0036 33.944 50L15.969 49.9685C11.7263 49.9611 7.66042 48.2662 4.66566 45.2567C1.6709 42.2472 -0.00737629 38.1695 2.43723e-05 33.9208L0.0312578 15.9919C0.0349206 13.8881 0.452339 11.8057 1.25964 9.86349C2.06694 7.92129 3.24836 6.15734 4.73639 4.67236C6.22443 3.18738 7.98993 2.01045 9.93217 1.20877C11.8744 0.407088 13.9553 -0.00364531 16.0561 2.43743e-05L34.031 0.0314613C38.2737 0.0388787 42.3396 1.73378 45.3343 4.74332C48.3291 7.75285 50.0074 11.8305 50 16.0792L49.9687 34.0081ZM27.2074 3.12349C27.1967 3.1056 27.1815 3.09086 27.1632 3.08078C27.145 3.0707 27.1244 3.06562 27.1036 3.06607L17.7362 3.06249C17.715 3.06202 17.6941 3.06725 17.6757 3.07763C17.6572 3.088 17.6419 3.10314 17.6313 3.12147C17.6207 3.13979 17.6152 3.16064 17.6153 3.18182C17.6155 3.20301 17.6214 3.22376 17.6323 3.24192L22.8069 12.1095C22.8176 12.1274 22.8329 12.1421 22.8511 12.1522C22.8694 12.1623 22.89 12.1674 22.9108 12.1669L32.2567 12.1167C32.277 12.1162 32.2968 12.1104 32.3143 12.1C32.3317 12.0895 32.3462 12.0747 32.3563 12.0571C32.3664 12.0394 32.3717 12.0194 32.3719 11.9991C32.372 11.9787 32.3668 11.9586 32.357 11.9408L27.2074 3.12349ZM46.2432 11.9696C44.8671 7.6811 41.1653 4.39029 36.7827 3.41777C35.1128 3.04813 32.9196 3.13426 31.006 3.04096C30.9828 3.03945 30.9597 3.0444 30.9391 3.05528C30.9185 3.06616 30.9013 3.08258 30.8892 3.10279C30.8771 3.123 30.8705 3.14626 30.8703 3.17012C30.87 3.19398 30.8761 3.21754 30.8877 3.23833L35.9871 11.9588C36.0492 12.0664 36.1424 12.1203 36.2666 12.1203L46.1249 12.1346C46.2396 12.1346 46.279 12.0796 46.2432 11.9696ZM13.823 3.28498C9.14287 4.17497 5.24042 7.47296 3.76759 12.0126C3.76361 12.0256 3.76258 12.0393 3.76466 12.0527C3.76674 12.0661 3.77184 12.0787 3.77953 12.0896C3.78722 12.1004 3.79731 12.1092 3.80893 12.1151C3.82055 12.1211 3.8334 12.1241 3.84642 12.1239L19.0442 12.1275C19.1613 12.1275 19.1899 12.0772 19.1302 11.9767L14.1132 3.41777C14.0464 3.30532 13.9496 3.26106 13.823 3.28498ZM46.623 15.2209L3.39848 15.2998C3.35424 15.2998 3.31043 15.3086 3.26956 15.3255C3.22869 15.3425 3.19157 15.3673 3.16029 15.3986C3.12901 15.43 3.10421 15.4672 3.08728 15.5081C3.07035 15.549 3.0616 15.5929 3.0616 15.6372L3.09388 33.5446C3.09717 35.3166 3.44929 37.0706 4.13019 38.7064C4.81108 40.3422 5.80739 41.8279 7.06224 43.0785C8.31708 44.3292 9.80591 45.3203 11.4437 45.9954C13.0814 46.6704 14.836 47.0162 16.6074 47.0129L33.5288 46.9842C35.3001 46.9809 37.0535 46.6286 38.6887 45.9474C40.3239 45.2663 41.809 44.2696 43.0592 43.0143C44.3094 41.759 45.3002 40.2696 45.975 38.6313C46.6498 36.9929 46.9955 35.2376 46.9922 33.4657L46.9599 15.5582C46.9599 15.4688 46.9244 15.383 46.8612 15.3197C46.7981 15.2564 46.7124 15.2209 46.623 15.2209Z" fill="white"/>
<path d="M23.0791 22.9652L31.7262 27.3219C32.1334 27.5267 32.4758 27.8409 32.7151 28.2294C32.9543 28.6179 33.081 29.0653 33.081 29.5217C33.081 29.9781 32.9543 30.4255 32.7151 30.814C32.4758 31.2025 32.1334 31.5167 31.7262 31.7216L23.0791 36.0782C22.7046 36.2667 22.2882 36.3561 21.8694 36.338C21.4506 36.3199 21.0435 36.1949 20.6865 35.9748C20.3296 35.7547 20.0348 35.4469 19.8301 35.0806C19.6254 34.7143 19.5177 34.3017 19.5171 33.8819V25.1615C19.5177 24.7417 19.6254 24.3291 19.8301 23.9628C20.0348 23.5965 20.3296 23.2887 20.6865 23.0686C21.0435 22.8485 21.4506 22.7235 21.8694 22.7054C22.2882 22.6873 22.7046 22.7768 23.0791 22.9652Z" fill="white"/>
</svg>
