<svg width="25" height="25" viewBox="0 0 50 50" fill="none" xmlns="http://www.w3.org/2000/svg">
<path d="M37.9221 39.8744C30.3159 44.4221 22.5213 45.1729 14.5384 42.1267C-3.99199 35.0572 -4.84337 11.7902 12.1844 2.84194C26.4931 -4.67662 45.1687 3.45981 47.6562 18.5903C48.8175 25.6527 46.3222 32.4815 40.8176 37.5897C40.7235 37.6783 40.7195 37.7705 40.8059 37.8663C43.6543 40.9652 46.5014 44.0557 49.3472 47.1379C51.2579 49.2034 48.539 51.1863 46.7656 49.1388C45.3165 47.4648 42.4668 44.3886 38.2164 39.9103C38.1301 39.8193 38.032 39.8073 37.9221 39.8744ZM44.5371 21.9706C44.5371 16.9688 42.3669 12.1719 38.504 8.63512C34.6411 5.09832 29.4019 3.11136 23.939 3.11136C18.476 3.11136 13.2369 5.09832 9.37397 8.63512C5.51108 12.1719 3.34093 16.9688 3.34093 21.9706C3.34093 26.9724 5.51108 31.7694 9.37397 35.3062C13.2369 38.843 18.476 40.8299 23.939 40.8299C29.4019 40.8299 34.6411 38.843 38.504 35.3062C42.3669 31.7694 44.5371 26.9724 44.5371 21.9706Z" fill="white"/>
</svg>
